# xmcd
#
# Track frame offsets: 
#        150
#        11896
#        25587
#        37531
#        49244
#        62926
#        71592
#        83145
#        93135
#        109496
#        118134
#        129874
#        145773
#        158979
#        172106
#        185265
#        194790
#        207343
#        229185
#        239205
#
# Disc length: 3437 seconds
#
# Revision: 1
# Processed by: cddbd v1.5.2PL0 Copyright (c) Steve Scherf et al.
# Submitted via: ExactAudioCopy v0.99pb4
#
DISCID=200d6b14
DTITLE=Various Artist - 20 best of Country
DYEAR=2004
DGENRE=Country
TTITLE0=J. Cash - Folsom Prison Blues
TTITLE1=L. Lynn - Coal Miners Daughter
TTITLE2=R. Travis - Sixteen Tons
TTITLE3=D. Parton - Jolene
TTITLE4=J. Dean - Big Bad John
TTITLE5=R. Miller - Dang Me
TTITLE6=C. Twiitty - Hello Darlin
TTITLE7=G. Mack - I've Been everywhere
TTITLE8=A. Jordon - It was almost like a song
TTITLE9=B. Peters - Kiss an Angel Good Mornin
TTITLE10=J.D. Miller - It Wasn't God who Made Honky Tonk Angels
TTITLE11=Hat Band - Devil Went Down To Georgia
TTITLE12=H. Cochran/H. Howard - I Fall to Pieces
TTITLE13=D. Robertson/H. Blair - Please Help Me I'm Fallin
TTITLE14=H. Williams - I'm So Lonesome I Could Cry
TTITLE15=H. Williams - I'm Walking the Floors over You
TTITLE16=M. Haggan - Okie From Muskogee
TTITLE17=M. Robbins - El Paso
TTITLE18=J. Webb - Galveston
TTITLE19=H. Carmichael/S. Gorell - Georgia on my mind
EXTD=
EXTT0=
EXTT1=
EXTT2=
EXTT3=
EXTT4=
EXTT5=
EXTT6=
EXTT7=
EXTT8=
EXTT9=
EXTT10=
EXTT11=
EXTT12=
EXTT13=
EXTT14=
EXTT15=
EXTT16=
EXTT17=
EXTT18=
EXTT19=
PLAYORDER=
